<svg width="66px" height="66px" viewBox="0 0 96 96" version="1.1" xmlns="http://www.w3.org/2000/svg" xmlns:xlink="http://www.w3.org/1999/xlink"><title>Spotify Playlist</title><g id="3rd_party/spotify_playlist" stroke="none" stroke-width="1" fill="none" fill-rule="evenodd"><path d="M46.2976,85.8791914 L47.1646,85.946002 L46.6126,93 L44.1416,92.8085429 C42.4876,92.6789105 41.8726,91.6917097 41.9716,90.4402583 C42.0876,88.9494855 43.1586,88.3432046 44.6326,88.4578794 L44.6326,88.4578794 L46.0876,88.5705599 L46.2976,85.8791914 Z M55.6011,85.1379932 L56.1961,88.2441854 L59.3021,91.6435463 L58.3191,91.8310147 L55.9381,89.1875105 L55.9191,89.190502 L54.6931,92.5220552 L53.6911,92.7135124 L55.3411,88.4067245 L54.7461,85.3005323 L55.6011,85.1379932 Z M44.6516,89.2486372 C43.4756,89.1568973 42.9306,89.7153139 42.8666,90.5300038 C42.7956,91.4334421 43.3456,91.9569576 44.2926,92.0297512 L44.2926,92.0297512 L45.8076,92.1484147 L46.0266,89.3553347 Z M36.1608,84.1054211 L40.4048,85.1853588 L38.6508,92.0449082 L37.8068,91.8305161 L39.3668,85.7348009 L35.9658,84.8692552 L36.1608,84.1054211 Z M63.3306,82.7410897 L65.8446,89.363312 L61.6076,90.9627767 L61.3276,90.2258662 L64.7506,88.9325335 L63.8666,86.6011443 L60.9666,87.6960397 L60.6866,86.9591292 L63.5866,85.865231 L62.5176,83.0482188 L63.3306,82.7410897 Z M29.2852,81.1333485 L30.1112,81.5122741 L29.9692,83.3460742 L32.8462,84.6673278 L34.1422,83.3650205 L34.9692,83.7439461 L29.5572,89.0499007 L28.7672,88.6879271 L29.2852,81.1333485 Z M29.8962,84.1468037 L29.5972,87.9161156 L29.6152,87.924093 L32.2752,85.2387076 L29.8962,84.1468037 Z M66.3695,81.1825092 L69.7385,87.4158342 L68.9735,87.8276664 L65.6035,81.5943414 L66.3695,81.1825092 Z M26.282,79.1015099 L27.002,79.5901244 L25.217,82.2037135 L24.997,86.7986842 L24.17,86.2372761 L24.366,82.6893365 L24.35,82.6773704 L21.119,84.1651517 L20.275,83.5927747 L24.498,81.7160961 L26.282,79.1015099 Z M70.5434,78.5093889 L74.2314,83.6179035 L75.9524,82.3814096 L76.4144,83.0215943 L72.2414,86.0171004 L71.7794,85.3769157 L73.5254,84.1244671 L69.8374,79.0169497 L70.5434,78.5093889 Z M19.877,73.6034001 L23.031,76.6288214 L18.112,81.7273642 L17.486,81.1270664 L21.857,76.5949175 L19.329,74.1697941 L19.877,73.6034001 Z M75.4893,74.0726695 C76.9173,72.5759136 79.0383,72.5230635 80.5683,73.9739494 C82.0973,75.4258325 82.1573,77.5478155 80.7293,79.0445714 C79.3573,80.4824941 77.2373,80.6061435 75.6643,79.1133763 C74.0983,77.6275893 74.1163,75.509595 75.4893,74.0726695 Z M79.9403,74.6320832 C78.7813,73.5312049 77.1463,73.5232275 76.0833,74.6360719 C75.0703,75.6990578 75.1033,77.3274404 76.2923,78.4562396 C77.4883,79.5900247 79.1213,79.5431576 80.1353,78.4801718 C81.1973,77.3683245 81.1073,75.7399419 79.9403,74.6320832 Z M18.082,71.3684375 L18.626,72.0455176 L13.09,76.4739605 L12.546,75.7968804 L18.082,71.3684375 Z M81.4574,66.1151335 L87.4914,69.8525359 L86.1814,71.9535783 C85.3054,73.3615858 84.1424,73.4513313 83.0714,72.7872145 C81.7964,71.9984511 81.7484,70.7709318 82.5294,69.5164888 L82.5294,69.5164888 L83.3004,68.2789978 L80.9974,66.852044 L81.4574,66.1151335 Z M12.5945,66.5998591 C13.7055,65.9267677 14.8945,66.5350429 15.5385,67.5930428 C16.0005,68.3508939 16.1815,69.3021964 15.9005,70.3003661 L15.9005,70.3003661 L15.0375,70.1697365 C15.3195,69.403908 15.1985,68.5902153 14.8405,68.0028807 C14.3895,67.2619816 13.7415,66.9658214 13.1525,67.3228091 C12.4765,67.7316498 12.6285,68.3857949 12.8145,69.3809731 C13.0265,70.4778628 13.1965,71.6226168 12.1285,72.2687845 C11.2225,72.8162322 10.0295,72.4323208 9.3965,71.3932671 C8.9865,70.7191785 8.8305,69.9044886 8.9435,69.0539005 L8.9435,69.0539005 L9.8075,69.1496291 C9.7025,69.8775649 9.8045,70.5267242 10.0805,70.9784433 C10.4275,71.5498232 11.0415,71.8659268 11.6275,71.5228995 C12.2135,71.1798722 12.0955,70.5047864 11.9235,69.5694387 C11.7085,68.3139985 11.4585,67.2869109 12.5945,66.5998591 Z M83.9724,68.6948187 L83.2434,69.8635048 C82.6204,70.8636688 82.8664,71.6045679 83.5634,72.0353464 C84.3374,72.5149864 85.0564,72.2676876 85.5584,71.4629694 L85.5584,71.4629694 L86.3604,70.1736255 L83.9724,68.6948187 Z M12.5315,61.632943 L12.8535,62.4396556 L6.9905,64.7730391 L7.7765,66.738466 L7.0415,67.0306376 L5.1355,62.2661475 L5.8705,61.973976 L6.6665,63.9663266 L12.5315,61.632943 Z M85.1766,60.1726837 L85.5896,60.9405065 C84.8056,61.1738448 84.2256,61.7581879 83.9686,62.3963783 C83.6446,63.2010964 83.7966,63.8951285 84.4366,64.1514018 C85.1696,64.4445705 85.6026,63.9310267 86.2896,63.1851417 C87.0426,62.3584857 87.8586,61.5358184 89.0186,62.0005008 C90.0016,62.3943839 90.4096,63.5770305 89.9546,64.7058297 C89.6606,65.4367571 89.1016,66.0510153 88.3506,66.4688306 L88.3506,66.4688306 L87.9076,65.7229456 C88.5566,65.3709437 89.0156,64.8992811 89.2126,64.4086723 C89.4616,63.7894282 89.3476,63.1093566 88.7206,62.8480974 C88.0936,62.585841 87.6226,63.0854244 86.9766,63.782448 C86.0976,64.7088212 85.4246,65.5245083 84.1906,65.0299107 C82.9846,64.5482764 82.7596,63.233006 83.2216,62.0862576 C83.5526,61.2635904 84.2066,60.5476205 85.1766,60.1726837 L85.1766,60.1726837 Z M5,46.0058545 C5.552,46.0058545 6,46.4525878 6,47.003027 C6,47.5534662 5.552,48.0001994 5,48.0001994 C4.448,48.0001994 4,47.5534662 4,47.003027 C4,46.4525878 4.448,46.0058545 5,46.0058545 Z M91,46.0058545 C91.552,46.0058545 92,46.4525878 92,47.003027 C92,47.5534662 91.552,48.0001994 91,48.0001994 C90.448,48.0001994 90,47.5534662 90,47.003027 C90,46.4525878 90.448,46.0058545 91,46.0058545 Z M7.6494,29.5304714 L8.0924,30.2773535 C7.4434,30.6293554 6.9844,31.101018 6.7874,31.5916269 C6.5384,32.2118681 6.6524,32.8909426 7.2794,33.1522018 C7.9064,33.4144581 8.3774,32.9148747 9.0234,32.2178512 C9.9024,31.2914779 10.5754,30.4757909 11.8094,30.9693912 C13.0154,31.4520227 13.2404,32.7672932 12.7784,33.9140415 C12.4474,34.737706 11.7934,35.4526786 10.8234,35.8276155 L10.8234,35.8276155 L10.4104,35.0607898 C11.1944,34.8264543 11.7744,34.2421113 12.0314,33.6039209 C12.3554,32.7992027 12.2034,32.1051707 11.5634,31.8488973 C10.8304,31.5557286 10.3974,32.0692725 9.7104,32.8151575 C8.9574,33.6418134 8.1414,34.4644807 6.9814,33.9997983 C5.9984,33.6059152 5.5904,32.4232687 6.0454,31.2944695 C6.3394,30.563542 6.8984,29.9492838 7.6494,29.5304714 L7.6494,29.5304714 Z M88.9585,28.9706588 L90.8645,33.7331544 L90.1295,34.025326 L89.3335,32.0339726 L83.4685,34.3663589 L83.1465,33.5606436 L89.0095,31.22726 L88.2235,29.2628303 L88.9585,28.9706588 Z M9.8186,24.046322 C10.6946,22.6393116 11.8576,22.5495661 12.9286,23.2126858 C14.2036,24.0024464 14.2516,25.2299657 13.4706,26.4844087 L13.4706,26.4844087 L12.6996,27.7218997 L15.0026,29.1488535 L14.5426,29.8857639 L8.5086,26.1473644 Z M83.8715,23.7316144 C84.7775,23.1831695 85.9705,23.5680781 86.6035,24.6081289 C87.0135,25.2812204 87.1695,26.0959103 87.0565,26.9464984 L87.0565,26.9464984 L86.1925,26.8507698 C86.2975,26.1228339 86.1955,25.4736746 85.9195,25.0219555 C85.5725,24.4505757 84.9585,24.134472 84.3725,24.4774994 C83.7865,24.8205267 83.9045,25.4956124 84.0765,26.429963 C84.2915,27.6873975 84.5415,28.713488 83.4055,29.401537 C82.2945,30.0736312 81.1055,29.4643588 80.4615,28.407356 C79.9995,27.649505 79.8185,26.6982024 80.0995,25.7000328 L80.0995,25.7000328 L80.9625,25.8306624 C80.6805,26.5964908 80.8015,27.4091864 81.1595,27.9975181 C81.6105,28.7384173 82.2585,29.0345775 82.8475,28.6775898 C83.5235,28.2687491 83.3715,27.6146039 83.1855,26.6194258 C82.9735,25.5225361 82.8035,24.3777821 83.8715,23.7316144 Z M12.4366,23.9645538 C11.6626,23.4859111 10.9436,23.7332098 10.4416,24.537928 L10.4416,24.537928 L9.6396,25.8262748 L12.0276,27.3060788 L12.7566,26.1363955 C13.3796,25.1362315 13.1336,24.3963295 12.4366,23.9645538 Z M82.91,19.5263386 L83.454,20.2034188 L77.918,24.6318617 L77.374,23.9557787 L82.91,19.5263386 Z M15.2707,16.9563261 C16.6427,15.5174062 18.7627,15.394754 20.3357,16.8875212 C21.9017,18.372311 21.8837,20.4903053 20.5107,21.928228 C19.0827,23.4239867 16.9617,23.4768368 15.4317,22.0259509 C13.9027,20.5740678 13.8427,18.4520848 15.2707,16.9563261 Z M77.888,14.2725361 L78.514,14.8738311 L74.143,19.4059799 L76.671,21.8301062 L76.123,22.3974973 L72.969,19.3710789 L77.888,14.2725361 Z M19.7077,17.5446578 C18.5117,16.4098756 16.8787,16.4577398 15.8647,17.5197285 C14.8027,18.632573 14.8927,20.2609556 16.0597,21.367817 C17.2187,22.4686954 18.8537,22.47767 19.9167,21.3638283 C20.9297,20.3018397 20.8967,18.6724599 19.7077,17.5446578 Z M23.7586,9.98369734 L24.2206,10.6228849 L22.4746,11.8763307 L26.1626,16.983848 L25.4566,17.4914088 L21.7686,12.3828943 L20.0476,13.618391 L19.5856,12.9792034 L23.7586,9.98369734 Z M71.003,9.20161498 L71.83,9.76302307 L71.634,13.3109627 L71.65,13.3229288 L74.881,11.8351474 L75.725,12.4075244 L71.502,14.284203 L69.718,16.8987892 L68.998,16.4101747 L70.783,13.7955885 L71.003,9.20161498 Z M66.4428,6.95049814 L67.2328,7.31346892 L66.7148,14.8670503 L65.8888,14.4871276 L66.0308,12.6543246 L63.1538,11.3330711 L61.8578,12.6363755 L61.0308,12.2564528 L66.4428,6.95049814 Z M27.0265,8.1731313 L30.3965,14.4064564 L29.6305,14.8182886 L26.2615,8.58496353 L27.0265,8.1731313 Z M34.3928,5.03802108 L34.6728,5.77493153 L31.2488,7.06726704 L32.1338,9.39865625 L35.0338,8.30376089 L35.3128,9.04166851 L32.4138,10.1355667 L33.4828,12.9515817 L32.6688,13.259708 L30.1548,6.63648853 L34.3928,5.03802108 Z M57.3494,3.95499207 L58.1934,4.16938415 L56.6324,10.2660966 L60.0344,11.1306451 L59.8394,11.8944792 L55.5944,10.8145414 L57.3494,3.95499207 Z M66.3848,8.07630585 L63.7248,10.7616913 L66.1038,11.8535951 L66.4028,8.08428323 L66.3848,8.07630585 Z M42.3091,3.28758454 L40.6591,7.59337523 L41.2541,10.6995674 L40.3991,10.8621066 L39.8041,7.75591434 L36.6981,4.35655342 L37.6811,4.16908499 L40.0611,6.81358636 L40.0811,6.80959767 L41.3071,3.47804448 L42.3091,3.28758454 Z M49.3876,3 L51.8586,3.19245429 C53.5126,3.32108953 54.1266,4.30829027 54.0286,5.56073888 C53.9116,7.05051454 52.8416,7.6567954 51.3676,7.54212056 L51.3676,7.54212056 L49.9116,7.42944008 L49.7026,10.1218057 L48.8346,10.053998 L49.3876,3 Z M50.1926,3.85258246 L49.9736,6.64466535 L51.3486,6.7513628 C52.5246,6.84310267 53.0696,6.28568326 53.1336,5.47099336 C53.2036,4.56655794 52.6546,4.04403957 51.7066,3.97024881 L51.7066,3.97024881 L50.1926,3.85258246 Z" id="spotify_playlist" fill="#808080"/></g></svg>