<svg width="38px" height="38px" viewBox="0 0 50 50" version="1.1" xmlns="http://www.w3.org/2000/svg" xmlns:xlink="http://www.w3.org/1999/xlink"><title>logo_spotify</title><g id="symbols" stroke="none" stroke-width="1" fill="none" fill-rule="evenodd"><path d="M24.7741935,-2.13162821e-14 L25.2321001,0.00422842866 C31.6362177,0.122523142 37.7539805,2.71862566 42.291871,7.25651613 L42.291871,7.25651613 L42.6126436,7.5833721 C47.0570427,12.1964488 49.5476129,18.3571913 49.5476129,24.7749677 L49.5476129,24.7749677 L49.5442938,25.1846516 C49.3255165,38.6780031 38.3189265,49.5483871 24.7741935,49.5483871 L24.7741935,49.5483871 L24.3644867,49.5450683 C10.8703839,49.326306 -4.33431069e-13,38.3204671 -4.33431069e-13,24.7749677 C-4.33431069e-13,11.091871 11.0910968,-2.13162821e-14 24.7741935,-2.13162821e-14 L24.7741935,-2.13162821e-14 Z M35.2371933,33.3301001 C28.7666425,29.5380554 20.8044852,28.6830503 11.5656774,30.8051613 L11.5656774,30.8051613 L11.4284148,30.8404586 C10.6672378,31.0731756 10.195828,31.8513978 10.3618065,32.6461935 C10.515871,33.3785806 11.1623226,33.8818065 11.8815484,33.8818065 L11.8815484,33.8818065 L11.987871,33.8781649 C12.0589247,33.8732903 12.1303226,33.8634839 12.2020645,33.8485161 L12.2020645,33.8485161 L12.7506635,33.7267155 C21.1355894,31.9168619 28.2804502,32.7636074 33.9754839,36.2415484 L33.9754839,36.2415484 L34.1061433,36.312008 C34.8134104,36.6513459 35.6750209,36.4105047 36.0990968,35.732129 L36.0990968,35.732129 L36.1416774,35.732129 L36.2198468,35.596308 C36.3853911,35.2718347 36.4323871,34.8976452 36.3483871,34.5406452 L36.3483871,34.5406452 L36.304627,34.3901643 C36.1853589,34.0459718 35.9478387,33.7529032 35.6314839,33.5659355 L35.6314839,33.5659355 Z M38.0200248,26.125437 C29.6650108,21.5456745 19.8298065,20.4490466 10.6590968,23.0895484 L10.6590968,23.0895484 L10.5096013,23.1416942 C9.92356251,23.3734026 9.48488337,23.8782134 9.33909677,24.4978065 L9.33909677,24.4978065 L9.30747043,24.6663302 C9.21944086,25.2856075 9.43683871,25.9136129 9.89883871,26.3458065 C10.2611613,26.6856774 10.7349677,26.8676129 11.2180645,26.8676129 L11.2180645,26.8676129 L11.4055054,26.8585233 C11.5304086,26.8463656 11.6549677,26.8219355 11.7778065,26.7847742 L11.7778065,26.7847742 L12.285521,26.6446581 C20.4203428,24.4702218 29.089185,25.530549 36.4668387,29.6167742 L36.4668387,29.6167742 L36.6056042,29.6938816 C37.4961832,30.1426684 38.5960258,29.8430323 39.1285161,28.9788387 L39.1285161,28.9788387 L39.171871,28.9788387 L39.2454923,28.8340554 C39.6472666,27.9547972 39.3333514,26.8988659 38.4913548,26.3883871 L38.4913548,26.3883871 Z M41.2796243,17.682133 C32.0062837,12.4708383 17.7899355,12.0208903 9.18735484,14.6237419 L9.18735484,14.6237419 L9.02036547,14.6840974 C8.3103476,14.9717064 7.78180645,15.5930876 7.61574194,16.3486452 L7.61574194,16.3486452 L7.58455215,16.5234092 C7.47870968,17.2819671 7.7518894,18.0501567 8.32412903,18.5713548 C8.76,18.9685161 9.32206452,19.179871 9.89496774,19.179871 L9.89496774,19.179871 L10.0724879,19.1730242 C10.2502742,19.1593065 10.4283871,19.1249032 10.6025806,19.0691613 L10.6025806,19.0691613 L11.0166292,18.9459621 C18.7023385,16.7365337 31.54153,17.2431429 39.3824516,21.9011613 L39.3824516,21.9011613 L39.3824516,21.9290323 L39.5493737,22.0191157 C40.2281,22.3502943 41.0319603,22.3314938 41.6972903,21.9584516 L41.6972903,21.9584516 L41.8475446,21.86653 C42.4801905,21.4455918 42.8694316,20.7366083 42.879656,19.9695484 L42.879656,19.9695484 L42.8750716,19.7933514 C42.8264121,19.0345477 42.4067834,18.343023 41.7468387,17.9512258 L41.7468387,17.9512258 Z" id="logo_spotify" fill="#808080"/></g></svg>